<!--Generator: Apple Native CoreSVG 175.5-->
<!DOCTYPE svg
PUBLIC "-//W3C//DTD SVG 1.1//EN"
       "http://www.w3.org/Graphics/SVG/1.1/DTD/svg11.dtd">
<svg version="1.1"
       xmlns="http://www.w3.org/2000/svg"
       xmlns:xlink="http://www.w3.org/1999/xlink" width="39.8438" height="39.8633">
       <g>
              <rect height="39.8633" opacity="0" width="39.8438" x="0" y="0"/>
              <path d="M19.9219 39.8438C30.8203 39.8438 39.8438 30.8008 39.8438 19.9219C39.8438 9.02344 30.8008 0 19.9023 0C9.02344 0 0 9.02344 0 19.9219C0 30.8008 9.04297 39.8438 19.9219 39.8438ZM19.9219 36.5234C10.7031 36.5234 3.33984 29.1406 3.33984 19.9219C3.33984 10.7031 10.6836 3.32031 19.9023 3.32031C29.1211 3.32031 36.5234 10.7031 36.5234 19.9219C36.5234 29.1406 29.1406 36.5234 19.9219 36.5234Z" fill="#ffffff" fill-opacity="0.425"/>
              <path d="M10.8594 19.9219C10.8594 20.8789 11.5234 21.5234 12.5195 21.5234L18.2617 21.5234L18.2617 27.2852C18.2617 28.2617 18.9258 28.9453 19.8828 28.9453C20.8594 28.9453 21.543 28.2812 21.543 27.2852L21.543 21.5234L27.3047 21.5234C28.2812 21.5234 28.9648 20.8789 28.9648 19.9219C28.9648 18.9453 28.2812 18.2617 27.3047 18.2617L21.543 18.2617L21.543 12.5195C21.543 11.5234 20.8594 10.8398 19.8828 10.8398C18.9258 10.8398 18.2617 11.5234 18.2617 12.5195L18.2617 18.2617L12.5195 18.2617C11.5234 18.2617 10.8594 18.9453 10.8594 19.9219Z" fill="#ffffff" fill-opacity="0.85"/>
       </g>
</svg>
