<?xml version="1.0" encoding="UTF-8"?>
<!--Generator: Apple Native CoreSVG 175.5-->
<!DOCTYPE svg
PUBLIC "-//W3C//DTD SVG 1.1//EN"
       "http://www.w3.org/Graphics/SVG/1.1/DTD/svg11.dtd">
<svg version="1.1" xmlns="http://www.w3.org/2000/svg" xmlns:xlink="http://www.w3.org/1999/xlink" width="39.8438" height="39.8633">
 <g>
  <rect height="39.8633" opacity="0" width="39.8438" x="0" y="0"/>
  <path d="M19.9219 39.8438C30.8203 39.8438 39.8438 30.8008 39.8438 19.9219C39.8438 9.02344 30.8008 0 19.9023 0C9.02344 0 0 9.02344 0 19.9219C0 30.8008 9.04297 39.8438 19.9219 39.8438ZM19.9219 36.5234C10.7031 36.5234 3.33984 29.1406 3.33984 19.9219C3.33984 10.7031 10.6836 3.32031 19.9023 3.32031C29.1211 3.32031 36.5234 10.7031 36.5234 19.9219C36.5234 29.1406 29.1406 36.5234 19.9219 36.5234Z" fill="#ffffff" fill-opacity="0.425"/>
  <path d="M19.5117 23.9648C20.4883 23.9648 21.0938 23.3398 21.0938 22.5781C21.0938 22.5 21.0938 22.4023 21.0938 22.3438C21.0938 21.25 21.7188 20.5469 23.0859 19.6484C24.9805 18.3984 26.3281 17.2656 26.3281 14.9219C26.3281 11.6797 23.4375 9.92188 20.1172 9.92188C16.7578 9.92188 14.5508 11.5234 14.0234 13.3203C13.9258 13.6328 13.8672 13.9453 13.8672 14.2773C13.8672 15.1562 14.5508 15.625 15.1953 15.625C15.8594 15.625 16.2891 15.3125 16.6406 14.8438L16.9922 14.375C17.6758 13.2422 18.6914 12.5781 20 12.5781C21.7773 12.5781 22.9297 13.5938 22.9297 15.0781C22.9297 16.4062 22.1094 17.0508 20.4102 18.2422C19.0039 19.2188 17.9492 20.2539 17.9492 22.168C17.9492 22.2461 17.9492 22.3438 17.9492 22.4219C17.9492 23.4375 18.5156 23.9648 19.5117 23.9648ZM19.4727 29.7852C20.6055 29.7852 21.582 28.8867 21.582 27.7539C21.582 26.6211 20.625 25.7227 19.4727 25.7227C18.3203 25.7227 17.3633 26.6406 17.3633 27.7539C17.3633 28.8672 18.3398 29.7852 19.4727 29.7852Z" fill="#ffffff" fill-opacity="0.85"/>
 </g>
</svg>
