<?xml version="1.0" encoding="UTF-8"?>
<!--Generator: Apple Native CoreSVG 175.5-->
<!DOCTYPE svg
PUBLIC "-//W3C//DTD SVG 1.1//EN"
       "http://www.w3.org/Graphics/SVG/1.1/DTD/svg11.dtd">
<svg version="1.1" xmlns="http://www.w3.org/2000/svg" xmlns:xlink="http://www.w3.org/1999/xlink" width="255" height="255.125">
 <g>
  <rect height="255.125" opacity="0" width="255" x="0" y="0"/>
  <path d="M127.5 255.125C197.25 255.125 255 197.375 255 127.625C255 58 197.125 0.125 127.375 0.125C57.75 0.125 0 58 0 127.625C0 197.375 57.875 255.125 127.5 255.125Z" fill="#ffffff"/>
  <path d="M101 127.625C101 141.125 97 154.5 90.25 163.5C87.375 167.5 82 168.625 78 165.875C73.625 162.625 72.75 157.25 76 152.625C80.625 146.25 83.375 137 83.375 127.625C83.375 117.875 80.625 108.625 76 102.5C72.625 97.875 73.5 92.25 78 89.125C82 86.5 87.25 87.625 90.25 91.5C97 101.125 101 114.5 101 127.625Z" fill="#0a84ff"/>
  <path d="M141.375 127.625C141.375 149 135 169.875 123.5 186C120.375 190.125 115.25 191.25 111.25 188.25C107.25 185.5 106.25 180 109.375 175.5C118.5 162.875 123.75 145.5 123.75 127.625C123.75 109.625 118.5 92.25 109.375 79.625C106.25 75.125 107.25 69.625 111.25 66.875C115.25 64 120.375 65 123.5 69.25C135 84.875 141.375 105.75 141.375 127.625Z" fill="#0a84ff"/>
  <path d="M181.625 127.625C181.625 157.125 173 185.875 157.125 208.375C154 212.75 148.625 213.75 144.75 211C140.625 207.875 139.875 202.625 142.875 198.375C156.625 178.875 164.25 153.5 164.25 127.625C164.25 101.375 156.75 76.25 142.875 56.875C139.875 52.5 140.625 47.25 144.75 44.25C148.75 41.25 154.125 42.25 157.125 46.75C173 69.625 181.625 98.125 181.625 127.625Z" fill="#0a84ff"/>
 </g>
</svg>
