<?xml version="1.0" encoding="UTF-8"?>
<!--Generator: Apple Native CoreSVG 175.5-->
<!DOCTYPE svg
PUBLIC "-//W3C//DTD SVG 1.1//EN"
       "http://www.w3.org/Graphics/SVG/1.1/DTD/svg11.dtd">
<svg version="1.1" xmlns="http://www.w3.org/2000/svg" xmlns:xlink="http://www.w3.org/1999/xlink" width="76.3281" height="77.0703">
 <g>
  <rect height="77.0703" opacity="0" width="76.3281" x="0" y="0"/>
  <path d="M0 31.1719C0 48.3594 13.9844 62.3438 31.1719 62.3438C37.9688 62.3438 44.1797 60.1562 49.2969 56.4844L68.5156 75.7422C69.4141 76.6406 70.5859 77.0703 71.8359 77.0703C74.4922 77.0703 76.3281 75.0781 76.3281 72.4609C76.3281 71.2109 75.8594 70.0781 75.0391 69.2578L55.9375 50.0391C59.9609 44.8047 62.3438 38.2812 62.3438 31.1719C62.3438 13.9844 48.3594 0 31.1719 0C13.9844 0 0 13.9844 0 31.1719ZM6.67969 31.1719C6.67969 17.6562 17.6562 6.67969 31.1719 6.67969C44.6875 6.67969 55.6641 17.6562 55.6641 31.1719C55.6641 44.6875 44.6875 55.6641 31.1719 55.6641C17.6562 55.6641 6.67969 44.6875 6.67969 31.1719Z" fill="#ffffff" fill-opacity="0.85"/>
 </g>
</svg>
